{"title":"They Came From Beyond Space (1967) DVDRip XviD AC3 peaSoup","uid":11040130,"size":1282363996,"categoryP":"video","categoryS":"movies","magnet":"?xt=urn:btih:80a69af4192b792a4e15595673cfb40a782c23a4&amp;dn=They+Came+From+Beyond+Space+%281967%29+DVDRip+XviD+AC3+peaSoup&amp;tr=udp%3A%2F%2Ftracker.openbittorrent.com%3A80&amp;tr=udp%3A%2F%2Fopen.demonii.com%3A1337&amp;tr=udp%3A%2F%2Ftracker.coppersurfer.tk%3A6969&amp;tr=udp%3A%2F%2Fexodus.desync.com%3A6969","seeders":3,"leechers":0,"uploader":"peaSoup","files":-1,"time":1410839170,"description":"Scientists investigating an unusual meteor shower in a rural field are possessed by an alien force bent on an ulterior purpose.                                                                           &lt;a href=&quot; http://i.imgur.com/7k3RjyW.jpg&quot; rel=&quot;nofollow&quot; target=&quot;_NEW&quot;&gt; http://i.imgur.com/7k3RjyW.jpg&lt;/a&gt;                                                                       &lt;a href=&quot; http://i.imgur.com/x2ECxKj.jpg&quot; rel=&quot;nofollow&quot; target=&quot;_NEW&quot;&gt; http://i.imgur.com/x2ECxKj.jpg&lt;/a&gt;                                                                       &lt;a href=&quot; http://i.imgur.com/VjPY5p0.jpg&quot; rel=&quot;nofollow&quot; target=&quot;_NEW&quot;&gt; http://i.imgur.com/VjPY5p0.jpg&lt;/a&gt;                                                                         Format                                   : AVI\nFormat/Info                              : Audio Video Interleave\nFormat profile                           : OpenDML\nFile size                                : 1.19 GiB\nDuration                                 : 1h 25mn\nOverall bit rate                         : 2 011 Kbps\nMovie name                               : They Came From Beyond Space (1967) DVDRip XviD AC3 peaSoup\nWriting application                      : Lavf54.63.104\nOriginal source form/Name                : SIFIMEGAPACKDISC11A\n\nVideo\nID                                       : 0\nFormat                                   : MPEG-4 Visual\nFormat profile                           : Advanced Simple@L5\nFormat settings, BVOP                    : 1\nFormat settings, QPel                    : No\nFormat settings, GMC                     : No warppoints\nFormat settings, Matrix                  : Default (MPEG)\nMuxing mode                              : Packed bitstream\nCodec ID                                 : XVID\nCodec ID/Hint                            : XviD\nDuration                                 : 1h 25mn\nBit rate                                 : 1 805 Kbps\nWidth                                    : 628 pixels\nHeight                                   : 480 pixels\nDisplay aspect ratio                     : 4:3\nFrame rate                               : 29.970 fps\nColor space                              : YUV\nChroma subsampling                       : 4:2:0\nBit depth                                : 8 bits\nScan type                                : Progressive\nCompression mode                         : Lossy\nBits/(Pixel*Frame)                       : 0.200\nStream size                              : 1.07 GiB (90%)\nWriting library                          : XviD 64\n\nAudio\nID                                       : 1\nFormat                                   : AC-3\nFormat/Info                              : Audio Coding 3\nMode extension                           : CM (complete main)\nFormat settings, Endianness              : Big\nCodec ID                                 : 2000\nDuration                                 : 1h 25mn\nBit rate mode                            : Constant\nBit rate                                 : 192 Kbps\nChannel(s)                               : 2 channels\nChannel positions                        : Front: L R\nSampling rate                            : 48.0 KHz\nBit depth                                : 16 bits\nCompression mode                         : Lossy\nStream size                              : 117 MiB (10%)\nAlignment                                : Aligned on interleaves\nInterleave, duration                     : 32 ms (0.96 video frame)\n\n                                                 ","torrent":{"xt":"urn:btih:80a69af4192b792a4e15595673cfb40a782c23a4","amp;dn":"They+Came+From+Beyond+Space+%281967%29+DVDRip+XviD+AC3+peaSoup","amp;tr":["udp%3A%2F%2Ftracker.openbittorrent.com%3A80","udp%3A%2F%2Fopen.demonii.com%3A1337","udp%3A%2F%2Ftracker.coppersurfer.tk%3A6969","udp%3A%2F%2Fexodus.desync.com%3A6969"],"infoHash":"80a69af4192b792a4e15595673cfb40a782c23a4","infoHashBuffer":{"type":"Buffer","data":[128,166,154,244,25,43,121,42,78,21,89,86,115,207,180,10,120,44,35,164]},"announce":[],"urlList":[]}}